REM DIRINDEX 1\4,1\2\5,1\2\6,1\3\7,1\3\8
REM DIRNAME cjc124,folder01,folder02,folder03,folder04,folder05,folder06,folder07
TITLE ""
FILE "109_Day55_Check2_Phrases.mp3" MP3
  TRACK 01 AUDIO
    TITLE "0:"
    INDEX 01 00:00:00
  TRACK 02 AUDIO
    TITLE "4:cjc124_3567"
    INDEX 01 00:00:33
  TRACK 03 AUDIO
    TITLE "0:"
    INDEX 01 00:01:56
  TRACK 04 AUDIO
    TITLE "5:cjc124_3568"
    INDEX 01 00:02:16
  TRACK 05 AUDIO
    TITLE "0:"
    INDEX 01 00:04:09
  TRACK 06 AUDIO
    TITLE "6:cjc124_3569"
    INDEX 01 00:04:27
  TRACK 07 AUDIO
    TITLE "0:"
    INDEX 01 00:07:05
  TRACK 08 AUDIO
    TITLE "5:cjc124_3570"
    INDEX 01 00:07:43
  TRACK 09 AUDIO
    TITLE "0:"
    INDEX 01 00:09:61
  TRACK 10 AUDIO
    TITLE "6:cjc124_3571"
    INDEX 01 00:10:04
  TRACK 11 AUDIO
    TITLE "0:"
    INDEX 01 00:12:09
  TRACK 12 AUDIO
    TITLE "5:cjc124_3572"
    INDEX 01 00:12:50
  TRACK 13 AUDIO
    TITLE "0:"
    INDEX 01 00:14:45
  TRACK 14 AUDIO
    TITLE "6:cjc124_3573"
    INDEX 01 00:14:64
  TRACK 15 AUDIO
    TITLE "0:"
    INDEX 01 00:16:49
  TRACK 16 AUDIO
    TITLE "5:cjc124_3574"
    INDEX 01 00:17:12
  TRACK 17 AUDIO
    TITLE "0:"
    INDEX 01 00:18:70
  TRACK 18 AUDIO
    TITLE "6:cjc124_3575"
    INDEX 01 00:19:15
  TRACK 19 AUDIO
    TITLE "0:"
    INDEX 01 00:21:21
  TRACK 20 AUDIO
    TITLE "5:cjc124_3576"
    INDEX 01 00:21:60
  TRACK 21 AUDIO
    TITLE "0:"
    INDEX 01 00:23:30
  TRACK 22 AUDIO
    TITLE "6:cjc124_3577"
    INDEX 01 00:23:53
  TRACK 23 AUDIO
    TITLE "0:"
    INDEX 01 00:25:25
  TRACK 24 AUDIO
    TITLE "5:cjc124_3578"
    INDEX 01 00:25:64
  TRACK 25 AUDIO
    TITLE "0:"
    INDEX 01 00:27:39
  TRACK 26 AUDIO
    TITLE "6:cjc124_3579"
    INDEX 01 00:27:57
  TRACK 27 AUDIO
    TITLE "0:"
    INDEX 01 00:29:25
  TRACK 28 AUDIO
    TITLE "5:cjc124_3580"
    INDEX 01 00:29:68
  TRACK 29 AUDIO
    TITLE "0:"
    INDEX 01 00:31:51
  TRACK 30 AUDIO
    TITLE "6:cjc124_3581"
    INDEX 01 00:31:71
  TRACK 31 AUDIO
    TITLE "0:"
    INDEX 01 00:33:50
  TRACK 32 AUDIO
    TITLE "5:cjc124_3582"
    INDEX 01 00:34:14
  TRACK 33 AUDIO
    TITLE "0:"
    INDEX 01 00:36:11
  TRACK 34 AUDIO
    TITLE "6:cjc124_3583"
    INDEX 01 00:36:31
  TRACK 35 AUDIO
    TITLE "0:"
    INDEX 01 00:38:00
  TRACK 36 AUDIO
    TITLE "5:cjc124_3584"
    INDEX 01 00:38:45
  TRACK 37 AUDIO
    TITLE "0:"
    INDEX 01 00:40:03
  TRACK 38 AUDIO
    TITLE "6:cjc124_3585"
    INDEX 01 00:40:24
  TRACK 39 AUDIO
    TITLE "0:"
    INDEX 01 00:41:63
  TRACK 40 AUDIO
    TITLE "5:cjc124_3586"
    INDEX 01 00:42:27
  TRACK 41 AUDIO
    TITLE "0:"
    INDEX 01 00:43:70
  TRACK 42 AUDIO
    TITLE "6:cjc124_3587"
    INDEX 01 00:44:16
  TRACK 43 AUDIO
    TITLE "0:"
    INDEX 01 00:45:55
  TRACK 44 AUDIO
    TITLE "5:cjc124_3588"
    INDEX 01 00:46:21
  TRACK 45 AUDIO
    TITLE "0:"
    INDEX 01 00:48:26
  TRACK 46 AUDIO
    TITLE "6:cjc124_3589"
    INDEX 01 00:48:48
  TRACK 47 AUDIO
    TITLE "0:"
    INDEX 01 00:50:29
  TRACK 48 AUDIO
    TITLE "5:cjc124_3590"
    INDEX 01 00:50:68
  TRACK 49 AUDIO
    TITLE "0:"
    INDEX 01 00:53:11
  TRACK 50 AUDIO
    TITLE "6:cjc124_3591"
    INDEX 01 00:53:27
  TRACK 51 AUDIO
    TITLE "0:"
    INDEX 01 00:55:26
  TRACK 52 AUDIO
    TITLE "5:cjc124_3592"
    INDEX 01 00:55:67
  TRACK 53 AUDIO
    TITLE "0:"
    INDEX 01 00:57:31
  TRACK 54 AUDIO
    TITLE "6:cjc124_3593"
    INDEX 01 00:57:50
  TRACK 55 AUDIO
    TITLE "0:"
    INDEX 01 00:59:30
  TRACK 56 AUDIO
    TITLE "5:cjc124_3594"
    INDEX 01 00:59:69
  TRACK 57 AUDIO
    TITLE "0:"
    INDEX 01 01:01:56
  TRACK 58 AUDIO
    TITLE "6:cjc124_3595"
    INDEX 01 01:01:74
  TRACK 59 AUDIO
    TITLE "0:"
    INDEX 01 01:03:33
  TRACK 60 AUDIO
    TITLE "5:cjc124_3596"
    INDEX 01 01:04:03
  TRACK 61 AUDIO
    TITLE "0:"
    INDEX 01 01:05:46
  TRACK 62 AUDIO
    TITLE "6:cjc124_3597"
    INDEX 01 01:05:68
  TRACK 63 AUDIO
    TITLE "0:"
    INDEX 01 01:07:27
  TRACK 64 AUDIO
    TITLE "5:cjc124_3598"
    INDEX 01 01:07:66
  TRACK 65 AUDIO
    TITLE "0:"
    INDEX 01 01:09:65
  TRACK 66 AUDIO
    TITLE "6:cjc124_3599"
    INDEX 01 01:10:08
  TRACK 67 AUDIO
    TITLE "0:"
    INDEX 01 01:11:64
